<svg width="38" height="38" viewBox="0 0 38 38" fill="none" xmlns="http://www.w3.org/2000/svg">
<g filter="url(#filter0_d)">
<path d="M19 38C29.4934 38 38 29.4934 38 19C38 8.50659 29.4934 0 19 0C8.50659 0 0 8.50659 0 19C0 29.4934 8.50659 38 19 38Z" fill="url(#paint0_linear)"/>
</g>
<path d="M30.7071 19.7071C31.0976 19.3166 31.0976 18.6834 30.7071 18.2929L24.3431 11.9289C23.9526 11.5384 23.3195 11.5384 22.9289 11.9289C22.5384 12.3195 22.5384 12.9526 22.9289 13.3431L28.5858 19L22.9289 24.6569C22.5384 25.0474 22.5384 25.6805 22.9289 26.0711C23.3195 26.4616 23.9526 26.4616 24.3431 26.0711L30.7071 19.7071ZM9 20H30V18H9V20Z" fill="white"/>
<defs>
<filter id="filter0_d" x="-4" y="-3" width="46" height="46" filterUnits="userSpaceOnUse" color-interpolation-filters="sRGB">
<feFlood flood-opacity="0" result="BackgroundImageFix"/>
<feColorMatrix in="SourceAlpha" type="matrix" values="0 0 0 0 0 0 0 0 0 0 0 0 0 0 0 0 0 0 127 0"/>
<feOffset dy="1"/>
<feGaussianBlur stdDeviation="2"/>
<feColorMatrix type="matrix" values="0 0 0 0 0.358079 0 0 0 0 0.356515 0 0 0 0 0.356515 0 0 0 0.15 0"/>
<feBlend mode="normal" in2="BackgroundImageFix" result="effect1_dropShadow"/>
<feBlend mode="normal" in="SourceGraphic" in2="effect1_dropShadow" result="shape"/>
</filter>
<linearGradient id="paint0_linear" x1="-2.5" y1="8" x2="35.5" y2="35.5" gradientUnits="userSpaceOnUse">
<stop stop-color="#FDC838"/>
<stop offset="1" stop-color="#F9B024"/>
</linearGradient>
</defs>
</svg>
