<svg width="42" height="43" viewBox="0 0 42 43" fill="none" xmlns="http://www.w3.org/2000/svg">
<g clip-path="url(#clip0)">
<path d="M39.8421 9H3.1579C2.58559 9 2.03671 8.73662 1.63203 8.26774C1.22735 7.79894 1 7.16308 1 6.50004C1 5.83693 1.22735 5.20106 1.63203 4.73226C2.03671 4.26338 2.58559 4 3.1579 4H39.8421C40.4144 4 40.9633 4.26338 41.3679 4.73226C41.7727 5.20106 42 5.83693 42 6.50004C42 7.16308 41.7727 7.79894 41.3679 8.26774C40.9633 8.73662 40.4144 9 39.8421 9Z" fill="white"/>
<path d="M39.8421 24H3.1579C2.58559 24 2.03671 23.7366 1.63203 23.2677C1.22735 22.7989 1 22.1631 1 21.5C1 20.8369 1.22735 20.2011 1.63203 19.7323C2.03671 19.2634 2.58559 19 3.1579 19H39.8421C40.4144 19 40.9633 19.2634 41.3679 19.7323C41.7727 20.2011 42 20.8369 42 21.5C42 22.1631 41.7727 22.7989 41.3679 23.2677C40.9633 23.7366 40.4144 24 39.8421 24Z" fill="white"/>
<path d="M39.8421 41H3.1579C2.58559 41 2.03671 40.7366 1.63203 40.2677C1.22735 39.7989 1 39.1631 1 38.5C1 37.8369 1.22735 37.2011 1.63203 36.7323C2.03671 36.2634 2.58559 36 3.1579 36H39.8421C40.4144 36 40.9633 36.2634 41.3679 36.7323C41.7727 37.2011 42 37.8369 42 38.5C42 39.1631 41.7727 39.7989 41.3679 40.2677C40.9633 40.7366 40.4144 41 39.8421 41Z" fill="white"/>
</g>
<defs>
<clipPath id="clip0">
<rect width="42" height="43" fill="white"/>
</clipPath>
</defs>
</svg>
