<svg width="32" height="32" viewBox="0 0 32 32" fill="none" xmlns="http://www.w3.org/2000/svg">
<g clip-path="url(#clip0)">
<path d="M7.18171 15.1618C5.93486 12.9202 8.32466 11.4257 9.25979 10.5718C10.7145 9.18405 11.3379 7.04913 9.25979 3.84674C6.9739 0.324111 5.31143 -0.636606 1.98649 2.99277C-6.53366 15.1618 14.3511 38.2191 26.8196 30.4266C30.5602 27.2242 29.7289 25.4095 26.5079 22.8476C23.5986 20.4992 21.5205 20.9261 20.0658 22.4206C19.1307 23.2746 17.4682 25.623 15.3902 24.2353C12.3769 22.2071 8.94808 18.3642 7.18171 15.1618ZM30.768 16.6563C30.6641 18.044 28.586 18.044 28.6899 16.5495C28.7938 8.75707 23.0791 2.45904 15.4941 2.1388C14.1433 2.03205 14.2472 -0.102874 15.598 0.00387204C24.4298 0.430857 30.8719 7.58286 30.768 16.6563ZM20.1697 16.2293C20.1697 17.7238 18.1956 17.7238 18.0917 16.3361C17.9878 14.2011 17.1565 13.2404 14.9745 12.9202C13.6238 12.8134 13.8316 10.6785 15.1823 10.7852C18.4034 11.2122 20.0658 13.0269 20.1697 16.2293ZM25.4689 16.3361C25.5728 17.7238 23.4947 17.8305 23.3908 16.4428C23.183 10.9987 20.4815 8.11659 15.2862 7.47611C13.9355 7.36937 14.1433 5.23444 15.4941 5.34119C21.7283 6.08841 25.2611 9.93128 25.4689 16.3361Z" fill="#8CC642"/>
</g>
<defs>
<clipPath id="clip0">
<rect width="32" height="32" fill="white"/>
</clipPath>
</defs>
</svg>
