<svg width="32" height="32" viewBox="0 0 32 32" fill="none" xmlns="http://www.w3.org/2000/svg">
<path d="M2.09016 15.264H0C0.176633 11.2603 1.82521 7.52898 4.67341 4.67341C7.52898 1.82521 11.2603 0.176633 15.264 0V2.09016C15.264 2.49494 15.5952 2.82613 16 2.82613C16.4048 2.82613 16.736 2.49494 16.736 2.09016V0C20.7397 0.176633 24.471 1.82521 27.3266 4.67341C30.1748 7.52898 31.8234 11.2603 32 15.264H29.9098C29.5051 15.264 29.1739 15.5952 29.1739 16C29.1739 16.4048 29.5051 16.736 29.9098 16.736H32C31.8234 20.7397 30.1748 24.471 27.3266 27.3266C24.4784 30.1748 20.7397 31.8234 16.736 32V29.9098C16.736 29.5051 16.4048 29.1739 16 29.1739C15.5952 29.1739 15.264 29.5051 15.264 29.9098V32C11.2603 31.8234 7.52898 30.1748 4.67341 27.3266C1.82521 24.4784 0.176633 20.7397 0 16.736H2.09016C2.49494 16.736 2.82613 16.4048 2.82613 16C2.82613 15.5952 2.49494 15.264 2.09016 15.264ZM9.22171 20.46C9.36154 20.6734 9.59705 20.7912 9.83993 20.7912C9.97976 20.7912 10.1196 20.7544 10.2447 20.6661L16.4048 16.6109C16.6109 16.4784 16.736 16.2429 16.736 15.9926V7.24931C16.736 6.84453 16.4048 6.51334 16 6.51334C15.5952 6.51334 15.264 6.84453 15.264 7.24931V15.6026L9.43514 19.4443C9.09659 19.6651 9.00092 20.1214 9.22171 20.46Z" fill="#8CC642"/>
</svg>
