<svg width="66" height="66" viewBox="0 0 66 66" fill="none" xmlns="http://www.w3.org/2000/svg">
<g clip-path="url(#clip0)">
<path d="M32.5067 66.0267C50.4891 66.0267 65.0667 51.4491 65.0667 33.4667C65.0667 15.4843 50.4891 0.90667 32.5067 0.90667C14.5243 0.90667 -0.0533295 15.4843 -0.0533295 33.4667C-0.0533295 51.4491 14.5243 66.0267 32.5067 66.0267Z" fill="url(#paint0_radial)"/>
<path d="M42.0803 11.7826C48.6537 11.8429 54.6994 17.4801 54.7597 24.4588C54.7747 30.6537 54.7747 36.8486 54.7597 43.0435C54.6994 49.585 49.0608 55.6595 42.0803 55.7197C35.8837 55.7347 29.6873 55.7347 23.4908 55.7197C16.9173 55.6595 10.8716 50.0222 10.8113 43.0435C10.7962 36.8486 10.7962 30.6537 10.8113 24.4588C10.8716 17.8871 16.4952 11.8429 23.4908 11.7826C29.7024 11.7525 35.8837 11.7525 42.0803 11.7826ZM23.5812 14.752C18.4853 14.7671 13.8417 19.1834 13.7814 24.4739C13.7663 30.6537 13.7663 36.8336 13.7814 43.0134C13.8266 48.0476 18.1385 52.6901 23.5058 52.7353C29.6873 52.7504 35.8686 52.7504 42.0501 52.7353C47.1007 52.6901 51.7293 48.3792 51.7745 43.0134C51.7896 36.8336 51.7896 30.6537 51.7745 24.4739C51.7293 19.3943 47.3269 14.7972 42.0501 14.752C35.8988 14.7218 29.7475 14.752 23.5812 14.752Z" fill="white"/>
<path d="M32.5678 24.5867C36.6692 24.6232 40.4907 27.7904 41.2452 31.8468C41.7807 34.746 40.7706 37.8766 38.6408 39.9109C36.2676 42.1644 32.6043 42.9805 29.4523 41.8233C25.9352 40.5321 23.4646 36.8289 23.6349 33.0771C23.8297 28.5943 27.7972 24.5988 32.5071 24.5867C32.5313 24.5867 32.5436 24.5867 32.5678 24.5867ZM32.4705 26.9864C29.5375 27.0108 26.7748 29.24 26.1663 32.127C25.5456 35.0505 27.2251 38.2907 29.9878 39.4479C32.9939 40.727 36.8882 39.2896 38.3366 36.3173C39.8457 33.2476 38.4217 29.0694 35.2453 27.5833C34.3812 27.1934 33.4198 26.9864 32.4705 26.9864Z" fill="white"/>
<path d="M45.4193 20.6571C45.4193 20.1071 45.1992 19.5708 44.8142 19.1859C44.4292 18.801 43.8931 18.5809 43.343 18.5809C43.3018 18.5809 43.2605 18.5809 43.2056 18.5809C42.6556 18.5809 42.1194 18.801 41.7344 19.1859C41.3494 19.5708 41.1294 20.1071 41.1294 20.6571C41.1294 20.6846 41.1294 20.6983 41.1294 20.7258C41.1294 21.2895 41.3494 21.8396 41.7619 22.2383C42.1606 22.637 42.7106 22.8708 43.2744 22.8708C44.4568 22.8708 45.4193 21.9083 45.4193 20.7258C45.4193 20.6983 45.4193 20.6846 45.4193 20.6571Z" fill="white"/>
</g>
<defs>
<radialGradient id="paint0_radial" cx="0" cy="0" r="1" gradientUnits="userSpaceOnUse" gradientTransform="translate(-0.0533295 2.53411) scale(90.9498)">
<stop stop-color="#FF8100"/>
<stop offset="0.19" stop-color="#FF7209"/>
<stop offset="0.32" stop-color="#F55E16"/>
<stop offset="0.48" stop-color="#D92938"/>
<stop offset="1" stop-color="#9100FF"/>
</radialGradient>
<clipPath id="clip0">
<rect width="66" height="66" fill="white"/>
</clipPath>
</defs>
</svg>
