<svg width="32" height="32" viewBox="0 0 32 32" fill="none" xmlns="http://www.w3.org/2000/svg">
<path d="M24.4869 3.53013C22.215 1.25531 19.2042 0 16 0C12.7959 0 9.78505 1.25531 7.51314 3.53013C5.56579 5.48591 4.33661 8.07976 4.06039 10.8331C3.78417 13.5865 4.46091 16.3745 5.98012 18.684C5.98702 18.6909 5.99393 18.7048 6.00083 18.7117L15.4407 31.7156C15.5719 31.896 15.779 32 16 32C16.221 32 16.4281 31.896 16.5593 31.7156L25.9992 18.7117C26.0061 18.7048 26.013 18.6909 26.0199 18.684C27.5391 16.3745 28.2158 13.5865 27.9396 10.8331C27.6565 8.07976 26.4342 5.48591 24.4869 3.53013ZM16 16.1179C13.293 16.1179 11.0971 13.9055 11.0971 11.1938C11.0971 8.48201 13.2999 6.26961 16 6.26961C18.7001 6.26961 20.9029 8.48201 20.9029 11.1938C20.9029 13.9055 18.707 16.1179 16 16.1179Z" fill="#8CC642"/>
</svg>
